<?xml version="1.0" encoding="UTF-8"?>
<svg version="1.1" xmlns="http://www.w3.org/2000/svg" width="533" height="533">
<path d="M0 0 C3.51220972 0.0113937 7.02411643 0.00459031 10.53631592 -0.00685596 C33.83271762 -0.07169786 56.83960081 0.71440524 79.71630859 5.44824219 C80.47424713 5.60102631 81.23218567 5.75381042 82.01309204 5.91122437 C137.87426678 17.18552338 190.85889788 41.62286822 224.71630859 89.26074219 C225.11914062 89.81922852 225.52197266 90.37771484 225.93701172 90.953125 C261.29213336 140.34383771 271.39311185 203.30303764 271.10742188 262.79248047 C271.09131114 266.76011496 271.10741096 270.72673138 271.12646484 274.69433594 C271.18357696 343.35896619 255.45611039 414.3975245 206.71630859 465.26074219 C206.23790527 465.76637695 205.75950195 466.27201172 205.26660156 466.79296875 C197.98805195 474.45844227 190.31936406 481.12275975 181.71630859 487.26074219 C180.87640381 487.86716553 180.87640381 487.86716553 180.01953125 488.48583984 C130.60364855 523.85499503 67.85133652 533.95081237 8.33007812 533.65185547 C4.90225118 533.63476466 1.47512365 533.6449666 -1.95267963 533.66217041 C-26.15731355 533.76503938 -50.33240095 532.43767094 -74.09619141 527.51074219 C-75.37059082 527.25325195 -76.64499023 526.99576172 -77.95800781 526.73046875 C-136.23815925 514.62238392 -188.50725759 486.72126533 -221.78369141 436.13574219 C-253.26588656 386.97274892 -262.95114474 328.27150475 -262.67480469 270.72900391 C-262.65869395 266.76136941 -262.67479377 262.794753 -262.69384766 258.82714844 C-262.75001572 191.29753512 -247.66434593 119.92525712 -199.69580078 69.74023438 C-198.7593458 68.75909379 -197.8282691 67.77278972 -196.90283203 66.78125 C-185.06292715 54.11472271 -171.29990731 43.75834943 -156.17285156 35.31689453 C-154.90937648 34.61053718 -153.65120254 33.89461616 -152.3984375 33.16943359 C-126.7447871 18.33177548 -98.10983142 10.58269168 -69.22119141 4.94824219 C-68.00544434 4.70557617 -66.78969727 4.46291016 -65.53710938 4.21289062 C-43.89406366 0.20250317 -21.9424312 -0.07159114 0 0 Z " fill="#FEFEFE" transform="translate(262.28369140625,-0.2607421875)"/>
<path d="M0 0 C1.42505859 0.41378906 1.42505859 0.41378906 2.87890625 0.8359375 C12.11506242 3.84186315 19.00091805 9.07560069 26.0625 15.625 C33.42955677 22.42357522 40.75843282 26.5039932 50.890625 26.4140625 C59.39286997 25.281854 67.75085075 21.37182853 75.125 17.125 C80.97133498 14.05269131 87.56686725 13.82518357 94 15 C97.74391819 17.91974507 99.7341755 20.91976874 100.3359375 25.62890625 C100.50318631 38.189292 96.60866743 46.89372173 88 56 C86.91788015 56.92234376 85.81649031 57.82316079 84.6875 58.6875 C79.35544802 63.27554473 78.73966321 69.10269921 77.52734375 75.6953125 C76.49393014 80.21171274 74.80404974 82.46396684 71 85 C70.01 85.2475 69.02 85.495 68 85.75 C64.82216081 86.74069241 64.82216081 86.74069241 63.34375 89.57421875 C61.80646522 93.49340116 61.46688109 96.91159716 61.5 101.0625 C61.50064453 101.83980469 61.50128906 102.61710937 61.50195312 103.41796875 C61.6566111 109.70406713 62.89172789 115.44105819 64.5 121.5 C69.55366481 140.65128393 67.92405202 160.47239969 58 178 C56.64194272 180.08891387 55.26565202 182.16603657 53.87573242 184.23388672 C53.15117355 185.31386932 52.42661469 186.39385193 51.68009949 187.50656128 C51.12566666 188.32939606 50.57123383 189.15223083 50 190 C50.71171356 190.00808685 51.42342712 190.01617371 52.15670776 190.02450562 C58.95009144 190.10329477 65.74331607 190.19081809 72.5364666 190.28752708 C76.02671423 190.33692383 79.5169395 190.38324484 83.00732422 190.421875 C121.51546459 190.85408631 121.51546459 190.85408631 135 195 C135.38218767 196.65614657 135.71395102 198.32457024 136 200 C135 201 135 201 131.8515625 201.12109375 C128.26703122 201.0083955 124.91221027 200.62994474 121.375 200.0625 C109.90317179 198.22319263 98.42678462 197.85339704 86.82421875 197.90234375 C85.53304642 197.9037587 84.24187408 197.90517365 82.91157532 197.90663147 C79.5267635 197.91039703 76.14199658 197.92017413 72.75720215 197.93133545 C69.28410448 197.94167997 65.81099935 197.94615664 62.33789062 197.95117188 C55.55857564 197.96180362 48.77928999 197.97880556 42 198 C42 198.66 42 199.32 42 200 C43.56959473 200.11275269 43.56959473 200.11275269 45.17089844 200.2277832 C80.19702197 202.76598512 80.19702197 202.76598512 92 204.5 C92.75506836 204.60610596 93.51013672 204.71221191 94.28808594 204.8215332 C98.6517659 205.52141683 102.15358133 206.8363895 106 209 C105.67 210.65 105.34 212.3 105 214 C98.84253431 213.2820892 92.7920226 212.2805818 86.70703125 211.10546875 C75.11784832 208.96891547 63.51274641 208.83893195 51.76879883 208.86962891 C49.27874904 208.8750738 46.78887305 208.86960795 44.29882812 208.86328125 C42.71614544 208.86394065 41.13346285 208.86521893 39.55078125 208.8671875 C38.43380608 208.86415115 38.43380608 208.86415115 37.29426575 208.86105347 C33.85829166 208.5674516 33.85829166 208.5674516 31 210 C35.10351799 210.92356145 39.14486218 211.32010441 43.3359375 211.6484375 C44.79624762 211.76581929 46.25653316 211.88350721 47.71679688 212.00146484 C48.47726318 212.06211121 49.23772949 212.12275757 50.02124023 212.1852417 C105.76020432 216.67887409 105.76020432 216.67887409 118 225 C117.67 226.32 117.34 227.64 117 229 C111.96253702 228.58021142 107.27806292 227.88189059 102.390625 226.58203125 C85.66361509 222.326175 68.41066265 220.69380149 51.25 219.25 C50.49372314 219.18506348 49.73744629 219.12012695 48.95825195 219.05322266 C33.04155627 216.71058546 33.04155627 216.71058546 18 219 C23.55252638 219.95927793 29.1060698 220.8845813 34.6875 221.66015625 C61.67134272 225.44084501 61.67134272 225.44084501 72 231 C71.67 232.65 71.34 234.3 71 236 C67.13021261 235.57937094 63.70583179 234.93570049 60.03125 233.65625 C51.38138913 231.01230926 42.30472305 230.08963071 33.375 228.8125 C31.49338942 228.53779458 29.61187789 228.2624098 27.73046875 227.98632812 C23.15475124 227.31637392 18.57778793 226.65565121 14 226 C14.01377686 226.86012695 14.02755371 227.72025391 14.04174805 228.60644531 C14.15402011 240.61026988 12.74476598 250.84016265 6 261 C5.443125 261.9075 4.88625 262.815 4.3125 263.75 C-0.27864185 268.21705694 -6.34407534 270.50624885 -12.375 272.4375 C-16.82356482 274.35498484 -17.77809372 275.83392572 -20 280 C-19.22076172 280.8353125 -19.22076172 280.8353125 -18.42578125 281.6875 C-9.24290059 291.73604963 -9.24290059 291.73604963 -7 297 C-7.1875 300 -7.1875 300 -8 302 C-10.28515625 301.82421875 -10.28515625 301.82421875 -13 301 C-14.80859375 298.70703125 -14.80859375 298.70703125 -16.4375 295.8125 C-20.39077091 289.16606576 -20.39077091 289.16606576 -26 284 C-29.04752057 284.12721048 -31.09357372 284.89756245 -34 286 C-33.7834375 286.73605469 -33.566875 287.47210938 -33.34375 288.23046875 C-32.92609375 289.69419922 -32.92609375 289.69419922 -32.5 291.1875 C-32.2215625 292.15042969 -31.943125 293.11335938 -31.65625 294.10546875 C-31.02967269 296.86912222 -30.79964548 299.18001009 -31 302 C-32 303 -32 303 -34.5625 303.0625 C-35.366875 303.041875 -36.17125 303.02125 -37 303 C-37.20496094 302.15695312 -37.40992188 301.31390625 -37.62109375 300.4453125 C-37.89050781 299.34960938 -38.15992188 298.25390625 -38.4375 297.125 C-38.70433594 296.03445313 -38.97117187 294.94390625 -39.24609375 293.8203125 C-39.8786478 291.07515279 -39.8786478 291.07515279 -41 289 C-49.91 289 -58.82 289 -68 289 C-70.42614549 295.99360736 -70.42614549 295.99360736 -72 303 C-73.66611905 303.042721 -75.33382885 303.04063832 -77 303 C-77.33 302.67 -77.66 302.34 -78 302 C-77.87419322 296.77417977 -77.36140321 291.72280643 -75 287 C-77.76605639 285.28322447 -77.76605639 285.28322447 -81 284 C-88.50133664 286.59378241 -93.23763575 295.48088038 -97 302 C-98.65 301.67 -100.3 301.34 -102 301 C-101.54671484 295.76377492 -99.85828256 292.96630576 -96.625 288.875 C-95.83351562 287.86179687 -95.04203125 286.84859375 -94.2265625 285.8046875 C-93.49179688 284.87914062 -92.75703125 283.95359375 -92 283 C-90.99509196 281.67036185 -89.99281166 280.33869443 -89 279 C-91.96396269 274.40074755 -93.93403155 272.73256569 -99.3125 271.5 C-107.2967827 269.62197652 -111.959911 266.0699398 -116.3125 259.125 C-122.11254742 248.54659373 -124.07604733 238.08257933 -124 226 C-128.71164122 226.62641434 -133.42127273 227.26592788 -138.12963867 227.91650391 C-139.72422616 228.13508961 -141.31926975 228.35037901 -142.91479492 228.56201172 C-152.44786548 229.8290844 -161.62776395 231.47161 -170.87866211 234.12402344 C-176.54680257 235.71473818 -176.54680257 235.71473818 -179 236 C-179.66 235.34 -180.32 234.68 -181 234 C-180.9140625 232.00390625 -180.9140625 232.00390625 -180 230 C-168.31749693 223.14287863 -151.87445335 222.60633067 -138.68066406 221.00170898 C-137.72901367 220.88512939 -136.77736328 220.7685498 -135.796875 220.6484375 C-134.51828613 220.49640869 -134.51828613 220.49640869 -133.21386719 220.34130859 C-130.83328625 220.03775434 -130.83328625 220.03775434 -128 219 C-129.87107813 217.12892187 -132.940164 217.82549342 -135.4375 217.8125 C-161.84413736 217.89730168 -190.10356404 220.36546035 -215.6875 227.16796875 C-219.11384258 228.02859489 -222.49724831 228.55768824 -226 229 C-226.33 227.35 -226.66 225.7 -227 224 C-221.1910311 221.19641232 -215.66391671 219.15518237 -209.328125 217.953125 C-208.48719299 217.7896759 -207.64626099 217.62622681 -206.77984619 217.45782471 C-193.88225147 215.09368185 -180.79007087 214.016713 -167.75 212.75 C-165.04667216 212.48117964 -162.34364726 212.2093736 -159.640625 211.9375 C-153.09474074 211.28136423 -146.54784964 210.63620717 -140 210 C-142.56547982 207.43452018 -144.26357767 207.74117443 -147.76342773 207.72216797 C-148.58399658 207.73135254 -149.40456543 207.74053711 -150.25 207.75 C-151.54369507 207.75797607 -151.54369507 207.75797607 -152.86352539 207.76611328 C-161.06836654 207.87865473 -169.25008359 208.34946323 -177.4375 208.875 C-178.67983398 208.95331055 -179.92216797 209.03162109 -181.20214844 209.11230469 C-191.00760988 209.79349325 -200.67037782 210.94877884 -210.25 213.1875 C-212.10625 213.5896875 -212.10625 213.5896875 -214 214 C-215 213 -215 213 -215.0625 210.4375 C-215.041875 209.633125 -215.02125 208.82875 -215 208 C-208.47930301 205.88476003 -202.10277159 204.30926525 -195.3125 203.375 C-194.42328857 203.24947754 -193.53407715 203.12395508 -192.61791992 202.99462891 C-183.85545498 201.84012782 -175.09710685 201.46905838 -166.26953125 201.2109375 C-161.15029482 201.04914717 -156.08746561 200.5786365 -151 200 C-151 199.34 -151 198.68 -151 198 C-159.29444402 197.95318551 -167.58883073 197.91788597 -175.88337517 197.89637566 C-179.73691424 197.88603989 -183.59036144 197.87207328 -187.44384766 197.84912109 C-203.40992917 197.75653579 -219.1619079 197.67571134 -235 200 C-237.99795917 200.35277558 -240.99831132 200.68064174 -244 201 C-244.33 199.35 -244.66 197.7 -245 196 C-239.35902058 193.209833 -234.39039832 192.30934661 -228.14453125 191.82421875 C-226.71401176 191.70453987 -226.71401176 191.70453987 -225.2545929 191.58244324 C-214.80914142 190.78733516 -204.37006012 190.73245265 -193.8996582 190.79418945 C-190.64461602 190.81274446 -187.38985588 190.8146961 -184.13476562 190.81445312 C-182.03124756 190.81936044 -179.9277314 190.82518529 -177.82421875 190.83203125 C-176.86787033 190.83314407 -175.91152191 190.8342569 -174.92619324 190.83540344 C-169.21070951 190.87550333 -163.67033281 191.27405547 -158 192 C-158.66386719 190.98421875 -159.32773438 189.9684375 -160.01171875 188.921875 C-165.19357892 180.88450413 -169.79167097 173.0635295 -173 164 C-173.350625 163.04351562 -173.70125 162.08703125 -174.0625 161.1015625 C-178.06939379 147.84542222 -176.90206189 133.27665899 -172.95703125 120.21484375 C-171.73225619 116.10059938 -171.16848564 112.27532307 -171 108 C-170.92265625 106.31197266 -170.92265625 106.31197266 -170.84375 104.58984375 C-170.41029655 95.25536078 -170.41029655 95.25536078 -174 87 C-176.24338836 85.796842 -178.4218135 84.9002803 -180.84375 84.1171875 C-183.82392274 82.57311249 -184.62330701 81.04388084 -186 78 C-186.36953919 75.65411046 -186.67687992 73.29797328 -186.9375 70.9375 C-188.05041934 63.6885087 -190.98242768 60.26169477 -196.36816406 55.50976562 C-202.7844523 49.72221896 -208.19080169 40.72563184 -209.23828125 32.01953125 C-209.43664596 26.12079133 -208.24883178 21.94438998 -205 17 C-202.33134171 14.33134171 -200.87075576 14.51080472 -197.125 14.3125 C-189.22247695 14.36958737 -183.18960899 17.12306395 -176.19384766 20.62231445 C-168.15563229 24.63335326 -158.80708839 28.03360243 -149.81640625 25.34765625 C-143.08260665 22.62846161 -137.41238062 18.30761455 -132.21875 13.2734375 C-122.76131467 4.18932198 -109.8546343 -1.16164907 -97 -3 C-96.32549805 -3.10006348 -95.65099609 -3.20012695 -94.95605469 -3.30322266 C-65.21676297 -7.4682977 -29.0123563 -8.51665878 0 0 Z " fill="#FCFCFC" transform="translate(321,117)"/>
<path d="M0 0 C1.42505859 0.41378906 1.42505859 0.41378906 2.87890625 0.8359375 C12.11506242 3.84186315 19.00091805 9.07560069 26.0625 15.625 C33.42955677 22.42357522 40.75843282 26.5039932 50.890625 26.4140625 C59.39286997 25.281854 67.75085075 21.37182853 75.125 17.125 C80.97133498 14.05269131 87.56686725 13.82518357 94 15 C97.74391819 17.91974507 99.7341755 20.91976874 100.3359375 25.62890625 C100.50318631 38.189292 96.60866743 46.89372173 88 56 C86.91788015 56.92234376 85.81649031 57.82316079 84.6875 58.6875 C79.35544802 63.27554473 78.73966321 69.10269921 77.52734375 75.6953125 C76.49393014 80.21171274 74.80404974 82.46396684 71 85 C70.01 85.2475 69.02 85.495 68 85.75 C64.82216081 86.74069241 64.82216081 86.74069241 63.34375 89.57421875 C61.80646522 93.49340116 61.46688109 96.91159716 61.5 101.0625 C61.50064453 101.83980469 61.50128906 102.61710937 61.50195312 103.41796875 C61.6566111 109.70406713 62.89172789 115.44105819 64.5 121.5 C69.55366481 140.65128393 67.92405202 160.47239969 58 178 C56.64194272 180.08891387 55.26565202 182.16603657 53.87573242 184.23388672 C53.15117355 185.31386932 52.42661469 186.39385193 51.68009949 187.50656128 C51.12566666 188.32939606 50.57123383 189.15223083 50 190 C50.71171356 190.00808685 51.42342712 190.01617371 52.15670776 190.02450562 C58.95009144 190.10329477 65.74331607 190.19081809 72.5364666 190.28752708 C76.02671423 190.33692383 79.5169395 190.38324484 83.00732422 190.421875 C121.51546459 190.85408631 121.51546459 190.85408631 135 195 C135.38218767 196.65614657 135.71395102 198.32457024 136 200 C135 201 135 201 131.8515625 201.12109375 C128.26703122 201.0083955 124.91221027 200.62994474 121.375 200.0625 C109.90317179 198.22319263 98.42678462 197.85339704 86.82421875 197.90234375 C85.53304642 197.9037587 84.24187408 197.90517365 82.91157532 197.90663147 C79.5267635 197.91039703 76.14199658 197.92017413 72.75720215 197.93133545 C69.28410448 197.94167997 65.81099935 197.94615664 62.33789062 197.95117188 C55.55857564 197.96180362 48.77928999 197.97880556 42 198 C42 198.66 42 199.32 42 200 C43.56959473 200.11275269 43.56959473 200.11275269 45.17089844 200.2277832 C80.19702197 202.76598512 80.19702197 202.76598512 92 204.5 C92.75506836 204.60610596 93.51013672 204.71221191 94.28808594 204.8215332 C98.6517659 205.52141683 102.15358133 206.8363895 106 209 C105.67 210.65 105.34 212.3 105 214 C98.84253431 213.2820892 92.7920226 212.2805818 86.70703125 211.10546875 C75.11784832 208.96891547 63.51274641 208.83893195 51.76879883 208.86962891 C49.27874904 208.8750738 46.78887305 208.86960795 44.29882812 208.86328125 C42.71614544 208.86394065 41.13346285 208.86521893 39.55078125 208.8671875 C38.43380608 208.86415115 38.43380608 208.86415115 37.29426575 208.86105347 C33.85829166 208.5674516 33.85829166 208.5674516 31 210 C35.10351799 210.92356145 39.14486218 211.32010441 43.3359375 211.6484375 C44.79624762 211.76581929 46.25653316 211.88350721 47.71679688 212.00146484 C48.47726318 212.06211121 49.23772949 212.12275757 50.02124023 212.1852417 C105.76020432 216.67887409 105.76020432 216.67887409 118 225 C117.67 226.32 117.34 227.64 117 229 C111.96253702 228.58021142 107.27806292 227.88189059 102.390625 226.58203125 C85.66361509 222.326175 68.41066265 220.69380149 51.25 219.25 C50.49372314 219.18506348 49.73744629 219.12012695 48.95825195 219.05322266 C33.04155627 216.71058546 33.04155627 216.71058546 18 219 C23.55252638 219.95927793 29.1060698 220.8845813 34.6875 221.66015625 C61.67134272 225.44084501 61.67134272 225.44084501 72 231 C71.67 232.65 71.34 234.3 71 236 C67.13021261 235.57937094 63.70583179 234.93570049 60.03125 233.65625 C51.38138913 231.01230926 42.30472305 230.08963071 33.375 228.8125 C31.49338942 228.53779458 29.61187789 228.2624098 27.73046875 227.98632812 C23.15475124 227.31637392 18.57778793 226.65565121 14 226 C14.01377686 226.86012695 14.02755371 227.72025391 14.04174805 228.60644531 C14.15402011 240.61026988 12.74476598 250.84016265 6 261 C5.443125 261.9075 4.88625 262.815 4.3125 263.75 C-0.27864185 268.21705694 -6.34407534 270.50624885 -12.375 272.4375 C-16.82356482 274.35498484 -17.77809372 275.83392572 -20 280 C-19.22076172 280.8353125 -19.22076172 280.8353125 -18.42578125 281.6875 C-9.24290059 291.73604963 -9.24290059 291.73604963 -7 297 C-7.1875 300 -7.1875 300 -8 302 C-10.28515625 301.82421875 -10.28515625 301.82421875 -13 301 C-14.80859375 298.70703125 -14.80859375 298.70703125 -16.4375 295.8125 C-20.39077091 289.16606576 -20.39077091 289.16606576 -26 284 C-29.04752057 284.12721048 -31.09357372 284.89756245 -34 286 C-33.7834375 286.73605469 -33.566875 287.47210938 -33.34375 288.23046875 C-32.92609375 289.69419922 -32.92609375 289.69419922 -32.5 291.1875 C-32.2215625 292.15042969 -31.943125 293.11335938 -31.65625 294.10546875 C-31.02967269 296.86912222 -30.79964548 299.18001009 -31 302 C-32 303 -32 303 -34.5625 303.0625 C-35.366875 303.041875 -36.17125 303.02125 -37 303 C-37.20496094 302.15695312 -37.40992188 301.31390625 -37.62109375 300.4453125 C-37.89050781 299.34960938 -38.15992188 298.25390625 -38.4375 297.125 C-38.70433594 296.03445313 -38.97117187 294.94390625 -39.24609375 293.8203125 C-39.8786478 291.07515279 -39.8786478 291.07515279 -41 289 C-49.91 289 -58.82 289 -68 289 C-70.42614549 295.99360736 -70.42614549 295.99360736 -72 303 C-73.66611905 303.042721 -75.33382885 303.04063832 -77 303 C-77.33 302.67 -77.66 302.34 -78 302 C-77.87419322 296.77417977 -77.36140321 291.72280643 -75 287 C-77.76605639 285.28322447 -77.76605639 285.28322447 -81 284 C-88.50133664 286.59378241 -93.23763575 295.48088038 -97 302 C-98.65 301.67 -100.3 301.34 -102 301 C-101.54671484 295.76377492 -99.85828256 292.96630576 -96.625 288.875 C-95.83351562 287.86179687 -95.04203125 286.84859375 -94.2265625 285.8046875 C-93.49179688 284.87914062 -92.75703125 283.95359375 -92 283 C-90.99509196 281.67036185 -89.99281166 280.33869443 -89 279 C-91.96396269 274.40074755 -93.93403155 272.73256569 -99.3125 271.5 C-107.2967827 269.62197652 -111.959911 266.0699398 -116.3125 259.125 C-122.11254742 248.54659373 -124.07604733 238.08257933 -124 226 C-128.71164122 226.62641434 -133.42127273 227.26592788 -138.12963867 227.91650391 C-139.72422616 228.13508961 -141.31926975 228.35037901 -142.91479492 228.56201172 C-152.44786548 229.8290844 -161.62776395 231.47161 -170.87866211 234.12402344 C-176.54680257 235.71473818 -176.54680257 235.71473818 -179 236 C-179.66 235.34 -180.32 234.68 -181 234 C-180.9140625 232.00390625 -180.9140625 232.00390625 -180 230 C-168.31749693 223.14287863 -151.87445335 222.60633067 -138.68066406 221.00170898 C-137.72901367 220.88512939 -136.77736328 220.7685498 -135.796875 220.6484375 C-134.51828613 220.49640869 -134.51828613 220.49640869 -133.21386719 220.34130859 C-130.83328625 220.03775434 -130.83328625 220.03775434 -128 219 C-129.87107813 217.12892187 -132.940164 217.82549342 -135.4375 217.8125 C-161.84413736 217.89730168 -190.10356404 220.36546035 -215.6875 227.16796875 C-219.11384258 228.02859489 -222.49724831 228.55768824 -226 229 C-226.33 227.35 -226.66 225.7 -227 224 C-221.1910311 221.19641232 -215.66391671 219.15518237 -209.328125 217.953125 C-208.48719299 217.7896759 -207.64626099 217.62622681 -206.77984619 217.45782471 C-193.88225147 215.09368185 -180.79007087 214.016713 -167.75 212.75 C-165.04667216 212.48117964 -162.34364726 212.2093736 -159.640625 211.9375 C-153.09474074 211.28136423 -146.54784964 210.63620717 -140 210 C-142.56547982 207.43452018 -144.26357767 207.74117443 -147.76342773 207.72216797 C-148.58399658 207.73135254 -149.40456543 207.74053711 -150.25 207.75 C-151.54369507 207.75797607 -151.54369507 207.75797607 -152.86352539 207.76611328 C-161.06836654 207.87865473 -169.25008359 208.34946323 -177.4375 208.875 C-178.67983398 208.95331055 -179.92216797 209.03162109 -181.20214844 209.11230469 C-191.00760988 209.79349325 -200.67037782 210.94877884 -210.25 213.1875 C-212.10625 213.5896875 -212.10625 213.5896875 -214 214 C-215 213 -215 213 -215.0625 210.4375 C-215.041875 209.633125 -215.02125 208.82875 -215 208 C-208.47930301 205.88476003 -202.10277159 204.30926525 -195.3125 203.375 C-194.42328857 203.24947754 -193.53407715 203.12395508 -192.61791992 202.99462891 C-183.85545498 201.84012782 -175.09710685 201.46905838 -166.26953125 201.2109375 C-161.15029482 201.04914717 -156.08746561 200.5786365 -151 200 C-151 199.34 -151 198.68 -151 198 C-159.29444402 197.95318551 -167.58883073 197.91788597 -175.88337517 197.89637566 C-179.73691424 197.88603989 -183.59036144 197.87207328 -187.44384766 197.84912109 C-203.40992917 197.75653579 -219.1619079 197.67571134 -235 200 C-237.99795917 200.35277558 -240.99831132 200.68064174 -244 201 C-244.33 199.35 -244.66 197.7 -245 196 C-239.35902058 193.209833 -234.39039832 192.30934661 -228.14453125 191.82421875 C-226.71401176 191.70453987 -226.71401176 191.70453987 -225.2545929 191.58244324 C-214.80914142 190.78733516 -204.37006012 190.73245265 -193.8996582 190.79418945 C-190.64461602 190.81274446 -187.38985588 190.8146961 -184.13476562 190.81445312 C-182.03124756 190.81936044 -179.9277314 190.82518529 -177.82421875 190.83203125 C-176.86787033 190.83314407 -175.91152191 190.8342569 -174.92619324 190.83540344 C-169.21070951 190.87550333 -163.67033281 191.27405547 -158 192 C-158.66386719 190.98421875 -159.32773438 189.9684375 -160.01171875 188.921875 C-165.19357892 180.88450413 -169.79167097 173.0635295 -173 164 C-173.350625 163.04351562 -173.70125 162.08703125 -174.0625 161.1015625 C-178.06939379 147.84542222 -176.90206189 133.27665899 -172.95703125 120.21484375 C-171.73225619 116.10059938 -171.16848564 112.27532307 -171 108 C-170.92265625 106.31197266 -170.92265625 106.31197266 -170.84375 104.58984375 C-170.41029655 95.25536078 -170.41029655 95.25536078 -174 87 C-176.24338836 85.796842 -178.4218135 84.9002803 -180.84375 84.1171875 C-183.82392274 82.57311249 -184.62330701 81.04388084 -186 78 C-186.36953919 75.65411046 -186.67687992 73.29797328 -186.9375 70.9375 C-188.05041934 63.6885087 -190.98242768 60.26169477 -196.36816406 55.50976562 C-202.7844523 49.72221896 -208.19080169 40.72563184 -209.23828125 32.01953125 C-209.43664596 26.12079133 -208.24883178 21.94438998 -205 17 C-202.33134171 14.33134171 -200.87075576 14.51080472 -197.125 14.3125 C-189.22247695 14.36958737 -183.18960899 17.12306395 -176.19384766 20.62231445 C-168.15563229 24.63335326 -158.80708839 28.03360243 -149.81640625 25.34765625 C-143.08260665 22.62846161 -137.41238062 18.30761455 -132.21875 13.2734375 C-122.76131467 4.18932198 -109.8546343 -1.16164907 -97 -3 C-96.32549805 -3.10006348 -95.65099609 -3.20012695 -94.95605469 -3.30322266 C-65.21676297 -7.4682977 -29.0123563 -8.51665878 0 0 Z M-94 3 C-94.66741211 3.09120117 -95.33482422 3.18240234 -96.02246094 3.27636719 C-110.29285875 5.26126879 -121.13872724 10.65877203 -131.4765625 20.6328125 C-139.73820934 28.38290226 -148.01547236 32.48807876 -159.3671875 32.171875 C-162.6295887 31.95889925 -165.78164523 31.57215196 -169 31 C-163.92859681 36.72466868 -156.18991993 39.87260913 -148.66796875 40.52734375 C-138.24665461 40.95042406 -127.1803313 39.65315101 -117.7734375 34.8671875 C-116 34 -116 34 -113 34 C-112.505 36.475 -112.505 36.475 -112 39 C-112.59167969 39.19335938 -113.18335938 39.38671875 -113.79296875 39.5859375 C-118.72226577 41.20251865 -118.72226577 41.20251865 -123.5625 43.0625 C-126 44 -126 44 -129.625 44.6875 C-140.06746066 47.24403463 -149.86924567 55.63587132 -155.6328125 64.515625 C-158.40285419 69.67581694 -159.67583074 74.16495326 -160 80 C-162.475 80.495 -162.475 80.495 -165 81 C-164.6826671 65.82571782 -157.43782026 57.33809586 -147 47 C-147.83660156 46.731875 -148.67320312 46.46375 -149.53515625 46.1875 C-163.66827966 41.42950497 -175.70185433 34.39692121 -188 26 C-192.37994195 23.0800387 -195.5799246 21.47121216 -201 22 C-203.53916853 25.8087528 -203.85848668 29.61293025 -203 34 C-199.67478921 43.0775047 -195.6989898 48.84123604 -188.23828125 55 C-182.59031014 60.04670368 -181.49535794 66.32440019 -180.4921875 73.58203125 C-180.10826263 76.24666161 -180.10826263 76.24666161 -178 79 C-176.17487193 79.75024461 -176.17487193 79.75024461 -174.125 80.25 C-170.11736037 81.63921809 -168.62001914 83.27807977 -166.69140625 86.98828125 C-162.76014491 98.42669701 -164.911664 110.51111785 -167.5 121.9375 C-172.30930549 143.49316541 -169.51867763 162.09149754 -158 181 C-155.25089377 184.8838841 -152.37023546 188.62976454 -149 192 C-147.58879098 192.22571184 -146.16823957 192.39388349 -144.74609375 192.53515625 C-143.46508789 192.66567383 -143.46508789 192.66567383 -142.15820312 192.79882812 C-141.26037109 192.88583984 -140.36253906 192.97285156 -139.4375 193.0625 C-138.53580078 193.15337891 -137.63410156 193.24425781 -136.70507812 193.33789062 C-134.47041566 193.56253923 -132.23542161 193.78305769 -130 194 C-129.67 192.68 -129.34 191.36 -129 190 C-126.6875 190.1875 -126.6875 190.1875 -124 191 C-121.12134889 194.85739248 -120.23040581 198.63555137 -119.3125 203.3125 C-119.06113281 204.56675781 -118.80976563 205.82101562 -118.55078125 207.11328125 C-118.36902344 208.06589844 -118.18726563 209.01851562 -118 210 C-116.35 210.33 -114.7 210.66 -113 211 C-113.33 212.32 -113.66 213.64 -114 215 C-115.32 215.33 -116.64 215.66 -118 216 C-118 216.99 -118 217.98 -118 219 C-117.01 219.33 -116.02 219.66 -115 220 C-115 221.32 -115 222.64 -115 224 C-115.66 224.33 -116.32 224.66 -117 225 C-117.51336457 236.78837156 -116.84154663 248.56071197 -109 258 C-103.53095631 263.61652352 -99.80174886 265.089269 -91.94921875 265.23828125 C-89.52871247 265.26885327 -87.10812367 265.29335959 -84.6875 265.3125 C-82.87088867 265.35600586 -82.87088867 265.35600586 -81.01757812 265.40039062 C-72.12789374 265.46364508 -67.69569892 264.45467508 -61.125 258.3125 C-58.47051295 254.17462312 -58.11810723 250.83165925 -58 246 C-58.69867188 245.52949219 -59.39734375 245.05898438 -60.1171875 244.57421875 C-61.02726563 243.95160156 -61.93734375 243.32898438 -62.875 242.6875 C-63.77992188 242.07261719 -64.68484375 241.45773437 -65.6171875 240.82421875 C-68 239 -68 239 -70 236 C-69.8453125 234.6078125 -69.8453125 234.6078125 -69.6875 233.1875 C-70.04802425 229.51015262 -70.50912365 229.13298986 -73.1875 226.8125 C-75.34442954 225.13149216 -77.43772898 223.74708992 -79.8125 222.375 C-82.36909884 220.76799501 -83.09953042 219.86513048 -84 217 C-84.53435115 211.76335878 -84.53435115 211.76335878 -82.6875 209.125 C-81 208 -81 208 -78 208 C-78.2475 209.0725 -78.495 210.145 -78.75 211.25 C-79.43027806 214.95920293 -79.43027806 214.95920293 -77.3046875 217.03515625 C-75.07932373 218.93237316 -72.79434471 220.54898059 -70.375 222.1875 C-66.22587209 225.32120114 -66.22587209 225.32120114 -65.25390625 228.2421875 C-65.04502737 229.77396597 -64.84178496 231.30652492 -64.64453125 232.83984375 C-63.57410164 236.42740482 -61.01548962 237.98506639 -58.0703125 240.1015625 C-55.51585619 241.21010014 -54.57000588 240.9637522 -52 240 C-48.12000116 238.50138248 -48.12000116 238.50138248 -45 236 C-44.35848723 233.72360755 -44.35848723 233.72360755 -44.125 231.1875 C-43.6916793 227.84896096 -43.3605387 226.38486076 -41.03125 223.8984375 C-38.74333553 222.15278847 -36.41951231 220.55658045 -34 219 C-32.65956383 218.00954119 -31.32384393 217.01252903 -30 216 C-30.33 213.36 -30.66 210.72 -31 208 C-28.13275314 208.57344937 -27.1385485 208.8614515 -25 211 C-24.5625 214.3125 -24.5625 214.3125 -25 218 C-27.14227847 220.76423029 -29.49091114 222.639892 -32.3359375 224.65234375 C-34.68837893 226.34803102 -36.91960039 227.97788745 -39 230 C-39.41702122 233.0842309 -39.41702122 233.0842309 -39 236 C-41.84697799 240.86358739 -46.22854991 243.27842046 -51 246 C-51.10726559 252.6198191 -49.57250429 256.35429244 -45.1796875 261.2734375 C-38.63917912 266.45427031 -32.24773119 266.51996342 -24.1875 266.5 C-23.15818359 266.52835937 -22.12886719 266.55671875 -21.06835938 266.5859375 C-13.78399167 266.60436727 -7.99886948 265.28800309 -2 261 C5.48893111 252.45366167 8.17681032 242.32741154 8.0625 231.125 C8.05347656 229.97257813 8.04445313 228.82015625 8.03515625 227.6328125 C8.02355469 226.76398438 8.01195312 225.89515625 8 225 C7.01 225 6.02 225 5 225 C5.33 223.35 5.66 221.7 6 220 C6.99 219.67 7.98 219.34 9 219 C9 218.01 9 217.02 9 216 C7.35 216 5.7 216 4 216 C4.33 214.35 4.66 212.7 5 211 C6.32 210.67 7.64 210.34 9 210 C9.25394531 208.97519531 9.50789062 207.95039063 9.76953125 206.89453125 C10.11676597 205.53374653 10.46444584 204.17307535 10.8125 202.8125 C10.97814453 202.13896484 11.14378906 201.46542969 11.31445312 200.77148438 C12.35759543 196.73668865 13.66091629 193.45165648 16 190 C17.875 190.3125 17.875 190.3125 20 191 C20.66 191.99 21.32 192.98 22 194 C24.22972273 193.88534579 26.45878753 193.75785234 28.6875 193.625 C30.54955078 193.52058594 30.54955078 193.52058594 32.44921875 193.4140625 C38.18124292 192.74564164 41.18666246 191.37867189 44.8125 186.875 C56.52499015 171.59108766 62.81275083 153.30667634 61 134 C60.03374512 128.24706708 58.48936153 122.63445207 57 117 C55.74469254 112.09947281 55.74303783 107.21922727 55.6875 102.1875 C55.65849609 101.32318359 55.62949219 100.45886719 55.59960938 99.56835938 C55.54575115 94.0789634 56.3446637 90.34028073 59.13598633 85.5871582 C60.15937437 84.00841815 60.15937437 84.00841815 60 82 C60.61488281 81.86464844 61.22976563 81.72929687 61.86328125 81.58984375 C67.34399257 80.15186812 67.34399257 80.15186812 70.9375 75.9375 C71.63152499 73.83332231 72.01609958 71.872062 72.29296875 69.671875 C73.37150626 61.6018767 77.34044728 57.6224409 83 52 C89.50332836 45.34484296 94.10987297 38.66945589 94.375 29.0625 C94.3138785 25.69470519 93.98687408 24.98031113 92 22 C86.31979535 20.99761094 82.99552287 23.45638572 78.5 26.5 C77.08476785 27.42147776 75.66807194 28.34071093 74.25 29.2578125 C73.18652344 29.95052246 73.18652344 29.95052246 72.1015625 30.65722656 C66.86972444 34.00005989 61.43242354 36.99823776 56 40 C55.24203125 40.42152344 54.4840625 40.84304687 53.703125 41.27734375 C48.68724356 43.93576091 43.46892261 45.52070126 38 47 C39.61594832 49.04119788 41.2856382 51.04072937 43 53 C43.66 53 44.32 53 45 53 C45.268125 53.56847656 45.53625 54.13695312 45.8125 54.72265625 C47.46738717 57.8963379 49.52093167 60.74883927 51.5625 63.68359375 C54.07634378 67.7344344 55.26767301 71.03295411 55.125 75.8125 C55.10695313 76.60269531 55.08890625 77.39289063 55.0703125 78.20703125 C55.03550781 79.09455078 55.03550781 79.09455078 55 80 C53.68 80 52.36 80 51 80 C50.93683594 79.40574219 50.87367188 78.81148438 50.80859375 78.19921875 C49.07318969 66.45327341 42.320221 58.00168167 33 51 C26.59971615 46.29862288 20.77148844 44.25520221 13.0078125 42.72265625 C9.08399218 41.7799202 6.32601938 40.24312935 3 38 C3 37.01 3 36.02 3 35 C8.08383066 35.55259029 12.69986866 36.72519766 17.5703125 38.28125 C31.85811254 42.50786609 44.01567103 40.65941281 56.9140625 33.75 C57.93242187 33.1725 58.95078125 32.595 60 32 C56.60965777 31.03025896 53.63719205 31.01914062 50.11157227 31.16821289 C38.87306262 31.57918339 32.43947235 29.25574393 24 21.625 C23.16726563 20.84769531 22.33453125 20.07039063 21.4765625 19.26953125 C-6.29939037 -6.18445711 -58.97074316 -2.43289803 -94 3 Z " fill="#252523" transform="translate(321,117)"/>
<path d="M0 0 C0.763125 0.20625 1.52625 0.4125 2.3125 0.625 C2.25 2.875 2.25 2.875 1.3125 5.625 C-0.9183475 7.30349824 -3.16155906 8.38499263 -5.6875 9.625 C-5.58308594 11.18347656 -5.58308594 11.18347656 -5.4765625 12.7734375 C-5.00002998 22.95290515 -6.0780607 29.41239518 -13.140625 37.234375 C-18.99877834 42.70627647 -26.06285547 44.25730257 -33.8671875 44.05078125 C-40.18283737 43.09731056 -45.22805126 40.08444874 -49.6875 35.625 C-49.6875 40.245 -49.6875 44.865 -49.6875 49.625 C-51.6675 50.12 -51.6675 50.12 -53.6875 50.625 C-57.62356586 46.68893414 -56.8982089 40.97706453 -56.9375 35.6875 C-56.958125 34.99720703 -56.97875 34.30691406 -57 33.59570312 C-57.04684725 27.41772269 -55.42033784 23.54024182 -51.3125 19 C-46.90328841 15.01071333 -43.81493866 12.28401242 -37.875 11.125 C-36.73933594 10.88652344 -35.60367187 10.64804688 -34.43359375 10.40234375 C-33.19738281 10.14582031 -31.96117187 9.88929688 -30.6875 9.625 C-22.27948609 7.74005952 -7.23468883 -1.00949146 0 0 Z " fill="#252523" transform="translate(345.6875,226.375)"/>
<path d="M0 0 C4.03265909 0.60014164 6.99764617 1.92524321 10.5625 3.875 C18.69956652 8.03306089 26.67701695 9.72249635 35.6875 10.875 C42.65372205 11.91660019 48.16030392 13.69202423 52.84765625 19.15234375 C57.37835216 25.58957364 58.15582225 30.65185404 58.25 38.5 C58.27578125 39.7890625 58.3015625 41.078125 58.328125 42.40625 C57.98646081 46.14828637 57.19095911 48.00184543 55 51 C53.68 50.67 52.36 50.34 51 50 C51 45.38 51 40.76 51 36 C49.824375 36.94875 48.64875 37.8975 47.4375 38.875 C41.2217305 43.49866012 34.65685765 45.03713289 27 44 C21.16660056 42.24237965 16.9859866 39.66929859 13 35 C12.278125 34.175 11.55625 33.35 10.8125 32.5 C7.22388813 27.55019052 6.88944124 24.10573813 7.375 18.0625 C7.58765253 13.00200966 7.58765253 13.00200966 5.2265625 8.75390625 C3.20735596 7.27669725 1.26303248 6.06079647 -1 5 C-0.67 3.35 -0.34 1.7 0 0 Z " fill="#262624" transform="translate(186,226)"/>
<path d="M0 0 C0.721875 0.7425 1.44375 1.485 2.1875 2.25 C11.55065334 11.40508327 19.43423551 12.5310075 32 13 C28.06334287 17.13281358 25.30131303 19.13472319 20 21 C19.01 21 18.02 21 17 21 C14 15.25 14 15.25 14 13 C12.02 13.33 10.04 13.66 8 14 C8.495 14.928125 8.99 15.85625 9.5 16.8125 C11 20 11 20 11 23 C4.07 23 -2.86 23 -10 23 C-9.34 20.03 -8.68 17.06 -8 14 C-10.41585574 14.03093173 -10.41585574 14.03093173 -13 15 C-14.85916824 17.96707046 -14.85916824 17.96707046 -16 21 C-22.07161025 20.68863537 -26.33859404 17.64625533 -31 14 C-31 13.67 -31 13.34 -31 13 C-29.54980469 12.97873047 -29.54980469 12.97873047 -28.0703125 12.95703125 C-18.86575164 12.61983447 -11.00403193 11.86307329 -4.05859375 5.11328125 C-2.62634246 3.47499846 -1.3001658 1.74495936 0 0 Z " fill="#F6F6F6" transform="translate(266,376)"/>
<path d="M0 0 C1.67542976 0.28604898 3.34385343 0.61781233 5 1 C5.23074219 1.7734375 5.46148437 2.546875 5.69921875 3.34375 C9.35882643 15.35416224 9.35882643 15.35416224 18 24 C18.2475 23.46375 18.495 22.9275 18.75 22.375 C20 20 20 20 22 17.0625 C25.33059507 11.96252631 26.60848678 6.86423428 28 1 C29.65 0.67 31.3 0.34 33 0 C35.03541562 6.76775695 31.79185392 12.84290407 29 19 C26.92763063 22.27702061 24.64570897 25.17080786 22 28 C21.05833984 29.14082031 21.05833984 29.14082031 20.09765625 30.3046875 C18 32 18 32 15.5 32.0234375 C8.17439029 29.02451603 3.83179901 19.62543671 0.90234375 12.69140625 C-0.42834103 8.72239408 -0.86507919 5.18254521 -1 1 C-0.67 0.67 -0.34 0.34 0 0 Z " fill="#282826" transform="translate(250,277)"/>
<path d="M0 0 C1.77570083 3.55140167 1.6248397 7.1308003 1 11 C-1.30448699 16.16863511 -4.69582242 20.89755409 -9.87890625 23.4140625 C-15.74094371 25.03340986 -21.78390558 24.75188918 -27.5 22.8125 C-30.92760666 20.32748517 -33.08324995 17.72564715 -35.0625 14 C-35 12 -35 12 -32.5625 9.25 C-31.2940625 8.13625 -31.2940625 8.13625 -30 7 C-28 9 -28 9 -26.5625 11.5 C-25.09034084 14.23702985 -25.09034084 14.23702985 -22 16 C-19.84193319 16.13794063 -19.84193319 16.13794063 -17.5625 15.8125 C-16.80066406 15.73644531 -16.03882813 15.66039062 -15.25390625 15.58203125 C-12.49144827 14.86867555 -11.02452189 14.01560329 -9 12 C-8.2759812 9.57444339 -8.2759812 9.57444339 -8.0625 6.9375 C-7.62890625 4.25390625 -7.62890625 4.25390625 -7 2 C-4.39439577 0.30635725 -3.04664378 0 0 0 Z " fill="#F4F4F4" transform="translate(333,239)"/>
<path d="M0 0 C2.31 0.33 4.62 0.66 7 1 C7.08636719 1.66386719 7.17273438 2.32773438 7.26171875 3.01171875 C7.95551022 7.3717844 8.61334777 10.43139377 11.125 14.125 C14.90226411 16.58843312 17.61341269 16.80969462 22 16 C26.21285902 14.2212373 27.93145393 12.02822129 30 8 C32.86724686 8.57344937 33.8614515 8.8614515 36 11 C35.86444717 15.87990172 33.26564752 18.5824619 30 22 C24.94920389 25.30029945 18.77915048 24.44011009 13 24 C7.1214652 22.28988079 4.12586754 18.05026157 1 13 C-0.00496852 9.98509443 -0.10335303 7.95818308 -0.0625 4.8125 C-0.05347656 3.91144531 -0.04445312 3.01039063 -0.03515625 2.08203125 C-0.02355469 1.39496094 -0.01195312 0.70789063 0 0 Z " fill="#F5F5F5" transform="translate(199,239)"/>
<path d="M0 0 C2.0625 0.4375 2.0625 0.4375 4 1 C4.495 2.98 4.495 2.98 5 5 C-4.03806758 11.25712371 -13.43715377 14.09375059 -24.30859375 15.41015625 C-27.43478766 16.09528728 -29.44319938 17.07799126 -32 19 C-33.21143606 20.99693687 -33.21143606 20.99693687 -33.8125 23.1875 C-34.204375 24.445625 -34.59625 25.70375 -35 27 C-36.65 27 -38.3 27 -40 27 C-40.84064341 23.7138485 -41.27792088 21.69480219 -40 18.5 C-33.59052861 10.48816077 -27.11827184 8.2501338 -17.125 6.625 C-7.81156159 5.05063308 -7.81156159 5.05063308 0 0 Z " fill="#272726" transform="translate(324,221)"/>
<path d="M0 0 C3.38936891 0.70977373 6.29446288 2.00031749 9.4375 3.4375 C13.87994563 5.33676725 17.83291143 6.41587559 22.625 7 C30.09066088 7.95897445 36.29960954 10.16788317 41.5625 15.6875 C43.88751785 19.4277461 44.09599239 21.58435001 44 26 C42.35 26.33 40.7 26.66 39 27 C38.60167969 26.16855469 38.60167969 26.16855469 38.1953125 25.3203125 C37.84210938 24.59585938 37.48890625 23.87140625 37.125 23.125 C36.60292969 22.04605469 36.60292969 22.04605469 36.0703125 20.9453125 C35.03442457 18.84864981 35.03442457 18.84864981 33 17 C30.97758486 16.42707786 28.93068874 15.93880131 26.875 15.5 C25.70066406 15.24089844 24.52632812 14.98179687 23.31640625 14.71484375 C22.22199219 14.47894531 21.12757813 14.24304688 20 14 C3.11602964 10.33459105 3.11602964 10.33459105 -1 5 C-0.6875 2.3125 -0.6875 2.3125 0 0 Z " fill="#252524" transform="translate(207,221)"/>
<path d="M0 0 C1.80859375 0.0625 1.80859375 0.0625 4 1 C9.84749065 8.54225282 15.56650877 17.79259969 14.9375 27.625 C14.09719916 32.95624199 11.83693088 37.16306912 8 41 C5.875 40.625 5.875 40.625 4 40 C3.25 38.3125 3.25 38.3125 3 36 C3.9590625 34.9790625 3.9590625 34.9790625 4.9375 33.9375 C7.59600854 30.15113936 7.73986881 27.61557892 7.59765625 23.05859375 C6.4796717 17.33714342 3.24327903 12.75485252 0 8 C-2 5 -2 5 -1.6875 2.875 C-1 1 -1 1 0 0 Z " fill="#2A2A28" transform="translate(307,287)"/>
<path d="M0 0 C1.65 0.33 3.3 0.66 5 1 C4.43715408 5.29951747 2.90523828 8.04671518 0.5 11.625 C-3.44866759 17.53181833 -4.76231442 21.92672195 -4 29 C-3.0398183 30.68991979 -2.04644066 32.36209288 -1 34 C-1.3125 36.8125 -1.3125 36.8125 -2 39 C-4.32421875 38.78515625 -4.32421875 38.78515625 -7 38 C-10.40110334 33.69193576 -12.94439885 27.75094373 -12.55078125 22.1953125 C-10.46809702 13.89411719 -5.39922757 6.509707 0 0 Z " fill="#292927" transform="translate(223,288)"/>
<path d="M0 0 C2.25 0.8125 2.25 0.8125 4.875 2.875 C9.4281032 5.4888185 13.11017738 5.52172877 18.25 4.8125 C21.651685 3.47612375 23.68478846 2.37771154 26.25 -0.1875 C28.375 0.1875 28.375 0.1875 30.25 0.8125 C30.745 2.7925 30.745 2.7925 31.25 4.8125 C30.19512267 5.77921756 29.13066719 6.73548745 28.0625 7.6875 C27.47082031 8.22117187 26.87914062 8.75484375 26.26953125 9.3046875 C20.75523482 13.42174441 14.88652401 13.57467783 8.25 12.8125 C3.51825327 11.28765139 -0.7335114 8.8344848 -3.75 4.8125 C-3.75 3.4925 -3.75 2.1725 -3.75 0.8125 C-1.75 -0.1875 -1.75 -0.1875 0 0 Z " fill="#2A2A28" transform="translate(252.75,328.1875)"/>
<path d="M0 0 C1.11375 0.3403125 1.11375 0.3403125 2.25 0.6875 C2.25 2.8125 2.25 2.8125 1.25 5.6875 C-0.6145377 7.30728932 -2.59660559 8.6742731 -4.6171875 10.09375 C-10.61950679 14.57899958 -13.52198792 19.63212842 -15.75 26.6875 C-17.4 26.3575 -19.05 26.0275 -20.75 25.6875 C-21.50223082 19.79502526 -20.04512147 16.68025161 -16.6015625 11.8984375 C-13.66583483 8.39290615 -10.34533437 5.49680985 -6.75 2.6875 C-6.06679688 2.12160156 -5.38359375 1.55570312 -4.6796875 0.97265625 C-2.75 -0.3125 -2.75 -0.3125 0 0 Z " fill="#282826" transform="translate(349.75,268.3125)"/>
<path d="M0 0 C8.04015675 1.1021656 13.77930728 7.32059758 18.80859375 13.32421875 C21.8749623 17.63724206 22.20447661 20.68360808 22 26 C20.125 26.625 20.125 26.625 18 27 C16 25 16 25 14.9375 21.4375 C12.29877794 14.02201441 5.68991466 8.74682499 -1 5 C-0.67 3.35 -0.34 1.7 0 0 Z " fill="#262624" transform="translate(182,268)"/>
<path d="M0 0 C0 0.66 0 1.32 0 2 C0.66 2 1.32 2 2 2 C3.35373964 3.50903877 4.63443401 5.08412698 5.875 6.6875 C6.55304688 7.55761719 7.23109375 8.42773438 7.9296875 9.32421875 C8.95449219 10.64873047 8.95449219 10.64873047 10 12 C10.73992187 12.8765625 11.47984375 13.753125 12.2421875 14.65625 C14.27650096 17.36866795 14.37826157 18.69021129 14 22 C12.68 22.33 11.36 22.66 10 23 C-5 6.73333333 -5 6.73333333 -5 1 C-3 0 -3 0 0 0 Z " fill="#292927" transform="translate(194,192)"/>
<path d="M0 0 C-0.53839394 3.83278278 -1.46295497 6.02857729 -3.94140625 8.98828125 C-4.52470703 9.69404297 -5.10800781 10.39980469 -5.70898438 11.12695312 C-6.32064453 11.84818359 -6.93230469 12.56941406 -7.5625 13.3125 C-8.17802734 14.05306641 -8.79355469 14.79363281 -9.42773438 15.55664062 C-10.94370442 17.37815502 -12.46784356 19.19209988 -14 21 C-15.65 20.67 -17.3 20.34 -19 20 C-18.65206858 14.55961782 -15.39551614 11.26820064 -12.0625 7.25 C-11.51142578 6.56550781 -10.96035156 5.88101563 -10.39257812 5.17578125 C-4.96207808 -1.48862342 -4.96207808 -1.48862342 0 0 Z " fill="#262624" transform="translate(344,193)"/>
<path d="M0 0 C1.97265625 0.69921875 1.97265625 0.69921875 4 2 C4.43359375 4.20703125 4.43359375 4.20703125 4.4375 6.8125 C4.71714718 11.93445896 6.15987792 13.5537366 10 17 C10.3125 19.8125 10.3125 19.8125 10 22 C8.375 22.8125 8.375 22.8125 6 23 C1.02448877 19.75068654 -1.22939127 16.80366194 -3 11 C-3.49041382 7.30146241 -3.83995091 4.11993455 -1.5 1 C-1.005 0.67 -0.51 0.34 0 0 Z " fill="#2C2C2A" transform="translate(229,324)"/>
<path d="M0 0 C2.0625 0.1875 2.0625 0.1875 4 1 C5.70108067 6.10324201 5.56521247 10.31873434 3.3125 15.1875 C1.41215965 18.63900155 -0.52346782 21.000994 -4 23 C-6.3125 22.75 -6.3125 22.75 -8 22 C-8.3125 19.8125 -8.3125 19.8125 -8 17 C-7.195625 16.278125 -6.39125 15.55625 -5.5625 14.8125 C-2.3025828 11.23454209 -2.37205178 8.90308083 -2.23828125 4.20703125 C-2 2 -2 2 0 0 Z " fill="#2B2B29" transform="translate(302,324)"/>
<path d="M0 0 C1.32 0 2.64 0 4 0 C5.20151896 2.74461688 6.38638103 5.49452127 7.5625 8.25 C7.90474609 9.02730469 8.24699219 9.80460938 8.59960938 10.60546875 C8.91865234 11.35957031 9.23769531 12.11367187 9.56640625 12.890625 C9.86490479 13.58188477 10.16340332 14.27314453 10.47094727 14.98535156 C11.09209599 17.35070424 10.77451334 18.71013447 10 21 C8.35 21 6.7 21 5 21 C3.98914564 18.60824639 2.99120797 16.21238415 2 13.8125 C1.57074219 12.80219727 1.57074219 12.80219727 1.1328125 11.77148438 C-0.38313553 8.07184931 -1.4840256 5.01589986 -1 1 C-0.67 0.67 -0.34 0.34 0 0 Z " fill="#2A2A29" transform="translate(212,185)"/>
<path d="M0 0 C1.32 0 2.64 0 4 0 C3.46766053 7.05349803 2.16946663 15.83053337 -3 21 C-5.625 20.625 -5.625 20.625 -8 20 C-6.74794696 13.03133638 -5.15636772 5.15636772 0 0 Z " fill="#2A2A28" transform="translate(318,185)"/>
<path d="M0 0 C0.33 0 0.66 0 1 0 C1 1.65 1 3.3 1 5 C4.96 5 8.92 5 13 5 C9.11485033 9.12797153 4.93071347 13.14744012 0 16 C-1.32 16 -2.64 16 -4 16 C-4.36266924 10.19729221 -3.30512167 6.34788227 -1 1 C-0.67 0.67 -0.34 0.34 0 0 Z " fill="#F0F0F0" transform="translate(341,311)"/>
<path d="M0 0 C2.68433048 2.45091043 3.91789741 4.28241384 4.09765625 8.04296875 C4.06510417 10.02864583 4.03255208 12.01432292 4 14 C0.30924699 14.5330338 -0.84005085 14.11893655 -3.89453125 11.84765625 C-4.87904772 10.9318577 -5.85151265 10.00295892 -6.8125 9.0625 C-7.31458984 8.59392578 -7.81667969 8.12535156 -8.33398438 7.64257812 C-9.58567288 6.45900872 -10.79673516 5.23276696 -12 4 C-12 3.67 -12 3.34 -12 3 C-8.37 3 -4.74 3 -1 3 C-0.67 2.01 -0.34 1.02 0 0 Z " fill="#F6F6F6" transform="translate(192,313)"/>
<path d="M0 0 C1.65 0.33 3.3 0.66 5 1 C5.054138 3.24973447 5.09285491 5.49984383 5.125 7.75 C5.14820313 9.00296875 5.17140625 10.2559375 5.1953125 11.546875 C5.01537302 14.72820492 4.68998582 16.36521896 3 19 C-0.875 18.125 -0.875 18.125 -2 17 C-2.49677928 10.96933057 -1.982072 5.69845701 0 0 Z " fill="#2D2D2B" transform="translate(232,186)"/>
<path d="M0 0 C1.2065625 0.0309375 1.2065625 0.0309375 2.4375 0.0625 C4.03162284 3.25074568 3.53924735 6.69146662 3.5 10.1875 C3.49548828 10.94160156 3.49097656 11.69570312 3.48632812 12.47265625 C3.47453499 14.33597127 3.45659942 16.19924555 3.4375 18.0625 C1.5625 18.6875 1.5625 18.6875 -0.5625 19.0625 C-3.48484589 16.14015411 -3.06232709 12.92748227 -3.25 9 C-3.29705078 8.25427734 -3.34410156 7.50855469 -3.39257812 6.74023438 C-3.49732117 4.84970825 -3.53524421 2.95572932 -3.5625 1.0625 C-2.5625 0.0625 -2.5625 0.0625 0 0 Z " fill="#2C2C2A" transform="translate(298.5625,185.9375)"/>
<path d="M0 0 C2.5625 0.1875 2.5625 0.1875 4.5625 2.1875 C4.2355244 4.80330479 3.74210932 6.82828137 2.5625 9.1875 C-2.1875 8.4375 -2.1875 8.4375 -4.4375 6.1875 C-3.71780303 0.28598485 -3.71780303 0.28598485 0 0 Z " fill="#343432" transform="translate(218.4375,358.8125)"/>
<path d="M0 0 C3.125 0.375 3.125 0.375 6 1 C6.6875 3.3125 6.6875 3.3125 7 6 C5.875 7.875 5.875 7.875 4 9 C1.3125 8.6875 1.3125 8.6875 -1 8 C-1.625 5.125 -1.625 5.125 -2 2 C-1.34 1.34 -0.68 0.68 0 0 Z " fill="#313130" transform="translate(215,344)"/>
<path d="M0 0 C4.55555556 0.55555556 4.55555556 0.55555556 6 2 C6.1875 4.4375 6.1875 4.4375 6 7 C4 9 4 9 1.375 9.125 C0.59125 9.08375 -0.1925 9.0425 -1 9 C-1.625 5.625 -1.625 5.625 -2 2 C-1.34 1.34 -0.68 0.68 0 0 Z " fill="#2E2E2C" transform="translate(285,361)"/>
<path d="M0 0 C4.55555556 0.55555556 4.55555556 0.55555556 6 2 C6.1875 4.4375 6.1875 4.4375 6 7 C4 9 4 9 1.375 9.125 C0.59125 9.08375 -0.1925 9.0425 -1 9 C-1.625 5.625 -1.625 5.625 -2 2 C-1.34 1.34 -0.68 0.68 0 0 Z " fill="#2F2F2D" transform="translate(244,361)"/>
<path d="M0 0 C2.00720923 0.28674418 4.0085944 0.61866701 6 1 C6.125 3.875 6.125 3.875 6 7 C5.34 7.66 4.68 8.32 4 9 C2.68 9 1.36 9 0 9 C-2 6 -2 6 -1.6875 3.375 C-1 1 -1 1 0 0 Z " fill="#2B2B29" transform="translate(312,359)"/>
<path d="M0 0 C2.375 -0.125 2.375 -0.125 5 0 C5.66 0.66 6.32 1.32 7 2 C6.67028521 5.29714793 6.3773161 6.6226839 4 9 C2.68 9 1.36 9 0 9 C-1.125 2.25 -1.125 2.25 0 0 Z " fill="#2D2D2C" transform="translate(313,344)"/>
<path d="M0 0 C2.4375 0.1875 2.4375 0.1875 3.4375 1.1875 C3.5625 4.1875 3.5625 4.1875 3.4375 7.1875 C2.4375 8.1875 2.4375 8.1875 -0.5625 8.3125 C-3.5625 8.1875 -3.5625 8.1875 -4.5625 7.1875 C-4.75 4.75 -4.75 4.75 -4.5625 2.1875 C-2.5625 0.1875 -2.5625 0.1875 0 0 Z " fill="#272725" transform="translate(230.5625,368.8125)"/>
<path d="M0 0 C3.3 0 6.6 0 10 0 C9.6875 2.375 9.6875 2.375 9 5 C6 7 6 7 3.3125 6.625 C2.549375 6.41875 1.78625 6.2125 1 6 C0.67 4.02 0.34 2.04 0 0 Z " fill="#F2F2F2" transform="translate(310,243)"/>
<path d="M0 0 C2.33944736 0.28730055 4.6739143 0.61936779 7 1 C7.125 3.375 7.125 3.375 7 6 C5 8 5 8 2.4375 8.1875 C0 8 0 8 -1 7 C-1.125 4 -1.125 4 -1 1 C-0.67 0.67 -0.34 0.34 0 0 Z " fill="#272725" transform="translate(300,369)"/>
<path d="M0 0 C7.75 -0.125 7.75 -0.125 10 1 C9.42655063 3.86724686 9.1385485 4.8614515 7 7 C4.5 7.3125 4.5 7.3125 2 7 C0 4 0 4 0 0 Z " fill="#F4F4F3" transform="translate(213,243)"/>
<path d="M0 0 C3 0.125 3 0.125 4 1.125 C4.1875 3.5625 4.1875 3.5625 4 6.125 C3.34 6.785 2.68 7.445 2 8.125 C-2.55555556 7.56944444 -2.55555556 7.56944444 -4 6.125 C-4.125 3.625 -4.125 3.625 -4 1.125 C-3 0.125 -3 0.125 0 0 Z " fill="#272725" transform="translate(299,353.875)"/>
<path d="M0 0 C2.5625 0.1875 2.5625 0.1875 4.5625 2.1875 C4.00694444 6.74305556 4.00694444 6.74305556 2.5625 8.1875 C0.0625 8.3125 0.0625 8.3125 -2.4375 8.1875 C-3.4375 7.1875 -3.4375 7.1875 -3.5625 4.1875 C-3.39891479 0.26145498 -3.39891479 0.26145498 0 0 Z " fill="#252523" transform="translate(233.4375,353.8125)"/>
</svg>
